Patient4_TMGait_0pt4_03_left_30_GRF.mot
version=1
nRows=52
nColumns=19
inDegrees=no
endheader
time	F1x	F1y	F1z	M1x	M1y	M1z	F2x	F2y	F2z	M2x	M2y	M2z	EC1x	EC1y	EC1z	EC2x	EC2y	EC2z
39.56	2.3594	-8.755	0.40195	1.3948	-0.28156	-11.8164	-17.6082	740.8026	-65.2045	296.3991	74.9092	794.1306	-0.0592	0.0182	-0.0073	-0.0462	0.0165	0.9585
39.573	1.552	-5.3189	0.32805	0.73977	-0.28286	-7.2198	-15.5506	739.5131	-64.2926	296.1813	73.5757	794.8964	-0.0592	0.0182	-0.0073	-0.0462	0.0165	0.9585
39.586	0.88253	-2.3755	0.26659	0.1773	-0.27674	-3.3106	-13.6486	739.8705	-63.6141	296.5061	72.3809	796.5062	-0.0592	0.0182	-0.0073	-0.0462	0.0165	0.9585
39.599	0.37691	-0.08744	0.2227	-0.26318	-0.27119	-0.29757	-12.001	742.219	-63.2083	297.5009	71.3912	799.2173	-0.0592	0.0182	-0.0073	-0.0462	0.0165	0.9585
39.612	0.038116	1.5479	0.18823	-0.58278	-0.26253	1.8247	-10.6047	746.5083	-63.0728	299.1658	70.6203	803.0426	-0.0592	0.0182	-0.0073	-0.0462	0.0165	0.9585
39.625	-0.16917	2.6009	0.16804	-0.79073	-0.26063	3.1648	-9.3979	752.3522	-63.1396	301.3807	70.0085	807.7188	-0.0592	0.0182	-0.0073	-0.0462	0.0165	0.9585
39.638	-0.28888	3.1867	0.15611	-0.90393	-0.26665	3.8872	-8.294	759.0798	-63.3273	303.9122	69.4769	812.7041	-0.0592	0.0182	-0.0073	-0.0462	0.0165	0.9585
39.651	-0.36071	3.3798	0.15893	-0.92914	-0.29	4.1061	-7.2077	765.8078	-63.5193	306.4377	68.9099	817.2214	-0.0592	0.0182	-0.0073	-0.0462	0.0165	0.9585
39.664	-0.42499	3.2237	0.17327	-0.86601	-0.334	3.8987	-6.0701	771.5734	-63.6154	308.5932	68.2056	820.4008	-0.0592	0.0182	-0.0073	-0.0462	0.0165	0.9585
39.677	-0.50779	2.7209	0.20411	-0.70556	-0.40348	3.2764	-4.8231	775.4781	-63.5228	310.0349	67.2679	821.4072	-0.0592	0.0182	-0.0073	-0.0462	0.0165	0.9585
39.69	-0.62209	1.8417	0.24866	-0.43093	-0.49723	2.2142	-3.4277	776.8696	-63.1979	310.5059	66.0493	819.6407	-0.0592	0.0182	-0.0073	-0.0462	0.0165	0.9585
39.703	-0.76087	0.53152	0.29789	-0.024214	-0.60293	0.6568	-1.8399	775.4341	-62.6098	309.878	64.5157	814.8321	-0.0592	0.0182	-0.0073	-0.0462	0.0165	0.9585
39.716	-0.89282	-1.2292	0.34399	0.52242	-0.70033	-1.4085	-0.061723	771.1866	-61.7885	308.1486	62.7021	807.0599	-0.0592	0.0182	-0.0073	-0.0462	0.0165	0.9585
39.729	-0.96465	-3.3973	0.35436	1.2007	-0.73675	-3.9426	1.9007	764.414	-60.7991	305.4223	60.6792	796.6728	-0.0592	0.0182	-0.0073	-0.0462	0.0165	0.9585
39.742	-0.89645	-5.8196	0.30608	1.9625	-0.65653	-6.7811	4.0391	755.6394	-59.7603	301.8969	58.5663	784.252	-0.0592	0.0182	-0.0073	-0.0462	0.0165	0.9585
39.755	-0.57985	-8.1205	0.1503	2.6841	-0.36887	-9.4945	6.3607	745.5703	-58.7969	297.844	56.4775	770.5419	-0.0592	0.0182	-0.0073	-0.0462	0.0165	0.9585
39.768	0.1257	-9.6496	-0.14939	3.1529	0.21612	-11.3246	8.9057	735.0067	-58.0345	293.5733	54.5149	756.3607	-0.0592	0.0182	-0.0073	-0.0462	0.0165	0.9585
39.781	1.3655	-9.3628	-0.65764	3.0302	1.2155	-11.0484	11.7155	724.7083	-57.5598	289.38	52.745	742.4827	-0.0592	0.0182	-0.0073	-0.0462	0.0165	0.9585
39.794	3.2753	-5.78	-1.395	1.8377	2.6999	-6.9336	14.8034	715.2043	-57.4153	285.4718	51.2051	729.4615	-0.0592	0.0182	-0.0073	-0.0462	0.0165	0.9585
39.807	5.9412	2.9875	-2.381	-1.0336	4.7149	3.2357	18.105	706.6412	-57.5816	281.9036	49.9018	717.5059	-0.0592	0.0182	-0.0073	-0.0462	0.0165	0.9585
39.82	9.3122	19.0992	-3.5522	-6.273	7.1725	21.9883	21.4852	698.617	-57.9734	278.5135	48.8053	706.2929	-0.0592	0.0182	-0.0073	-0.0462	0.0165	0.9585
39.833	13.1292	44.6685	-4.7728	-14.5463	9.8216	51.7888	24.7088	690.155	-58.4274	274.9145	47.8457	694.9574	-0.0592	0.0182	-0.0073	-0.0462	0.0165	0.9585
39.846	16.773	81.1213	-5.7615	-26.289	12.1275	94.329	27.4849	679.772	-58.702	270.5237	46.9029	682.1471	-0.0592	0.0182	-0.0073	-0.0462	0.0165	0.9585
39.859	19.1555	128.2586	-6.0753	-41.404	13.2043	149.4106	29.5064	665.6797	-58.5026	264.6425	45.8147	666.2062	-0.0592	0.0182	-0.0073	-0.0462	0.0165	0.9585
39.872	18.662	183.0447	-5.0464	-58.8702	11.7528	213.5409	30.5289	646.1259	-57.5348	256.5952	44.3927	645.474	-0.0592	0.0182	-0.0073	-0.0462	0.0165	0.9585
39.885	14.2768	239.2065	-1.8668	-76.6173	6.5272	279.4404	30.4555	619.9297	-55.5744	245.9369	42.4677	618.782	-0.0592	0.0182	-0.0073	-0.0462	0.0165	0.9585
39.898	7.2909	290.0625	3.9745	-92.4807	-2.5683	339.1827	29.3866	586.9785	-52.5669	232.6463	39.9627	585.9327	-0.0592	0.0182	-0.0073	-0.0462	0.0165	0.9585
39.911	-0.51825	333.5529	11.4385	-105.8381	-13.7659	390.0492	27.6144	548.3421	-48.6991	217.1551	36.9536	547.8146	-0.0592	0.0182	-0.0073	-0.0462	0.0165	0.9585
39.924	-7.9437	371.2929	19.6683	-117.2557	-25.6415	433.7249	25.5044	505.6848	-44.3793	200.1194	33.682	505.8826	-0.0592	0.0182	-0.0073	-0.0462	0.0165	0.9585
39.937	-14.3184	406.0031	27.7581	-127.6742	-36.9453	473.3633	23.3875	460.6433	-39.9898	182.1801	30.3707	461.5855	-0.0592	0.0182	-0.0073	-0.0462	0.0165	0.9585
39.95	-19.3738	439.8685	35.155	-137.851	-46.9359	511.5332	21.4215	414.474	-35.7478	163.8307	27.1436	416.0496	-0.0592	0.0182	-0.0073	-0.0462	0.0165	0.9585
39.963	-23.0624	473.7824	41.3024	-148.13	-54.988	549.2907	19.5863	368.0648	-31.6787	145.419	24.0115	370.1125	-0.0592	0.0182	-0.0073	-0.0462	0.0165	0.9585
39.976	-25.3522	507.6799	46.1116	-158.5156	-60.9985	586.5397	17.7887	322.0784	-27.7138	127.2056	20.9345	324.4276	-0.0592	0.0182	-0.0073	-0.0462	0.0165	0.9585
39.989	-26.3143	541.2047	49.6865	-168.8891	-65.1373	622.8496	15.8294	277.1348	-23.8009	109.4305	17.9254	279.6507	-0.0592	0.0182	-0.0073	-0.0462	0.0165	0.9585
40.002	-26.046	574.1435	52.4169	-179.1507	-67.8869	658.0187	13.5623	233.8717	-19.9692	92.3411	15.0651	236.4404	-0.0592	0.0182	-0.0073	-0.0462	0.0165	0.9585
40.015	-24.7041	606.4575	54.6336	-189.2545	-69.6946	692.0434	10.8787	193.0816	-16.311	76.235	12.4857	195.6284	-0.0592	0.0182	-0.0073	-0.0462	0.0165	0.9585
40.028	-22.651	638.0042	56.7471	-199.1123	-71.141	724.8552	7.8157	155.5819	-12.9471	61.426	10.3034	158.0422	-0.0592	0.0182	-0.0073	-0.0462	0.0165	0.9585
40.041	-20.2959	668.432	59.0116	-208.5881	-72.6475	756.1217	4.534	122.1408	-9.9709	48.2104	8.5605	124.4611	-0.0592	0.0182	-0.0073	-0.0462	0.0165	0.9585
40.054	-18.0059	697.4308	61.5382	-217.569	-74.4548	785.6001	1.329	93.3043	-7.4367	36.8008	7.2107	95.4346	-0.0592	0.0182	-0.0073	-0.0462	0.0165	0.9585
40.067	-15.9418	724.6666	64.1816	-225.9613	-76.4551	812.9595	-1.4777	69.223	-5.347	27.2651	6.1466	71.1071	-0.0592	0.0182	-0.0073	-0.0462	0.0165	0.9585
40.08	-14.1428	749.6864	66.7221	-233.6419	-78.415	837.7423	-3.6741	49.7098	-3.6674	19.5359	5.2586	51.3191	-0.0592	0.0182	-0.0073	-0.0462	0.0165	0.9585
40.093	-12.585	771.7468	68.89	-240.4057	-80.0277	859.1418	-5.1031	34.3289	-2.354	13.4484	4.4524	35.6471	-0.0592	0.0182	-0.0073	-0.0462	0.0165	0.9585
40.106	-11.2133	789.9016	70.5746	-245.9699	-81.1458	876.1463	-5.7569	22.5383	-1.3617	8.7906	3.6753	23.5916	-0.0592	0.0182	-0.0073	-0.0462	0.0165	0.9585
40.119	-9.9627	803.2137	71.7179	-250.0467	-81.6795	887.7518	-5.6521	13.7531	-0.65435	5.3349	2.8984	14.5776	-0.0592	0.0182	-0.0073	-0.0462	0.0165	0.9585
40.132	-8.7172	811.035	72.3911	-252.4288	-81.6592	893.2672	-4.9176	7.4938	-0.20073	2.8859	2.1397	8.1442	-0.0592	0.0182	-0.0073	-0.0462	0.0165	0.9585
40.145	-7.3845	813.1743	72.6077	-253.052	-81.0693	892.5128	-3.8197	3.3531	0.041865	1.2764	1.461	3.8804	-0.0592	0.0182	-0.0073	-0.0462	0.0165	0.9585
40.158	-5.8905	809.9233	72.4294	-251.9986	-79.9572	885.8523	-2.6771	0.91706	0.14952	0.33725	0.90888	1.3625	-0.0592	0.0182	-0.0073	-0.0462	0.0165	0.9585
40.171	-4.2124	802.0449	71.8601	-249.5013	-78.3348	874.1577	-1.6747	-0.24765	0.16865	-0.10861	0.50554	0.15421	-0.0592	0.0182	-0.0073	-0.0462	0.0165	0.9585
40.184	-2.3631	790.7123	70.9718	-245.9162	-76.2877	858.7424	-0.871	-0.56744	0.14539	-0.22775	0.22754	-0.18973	-0.0592	0.0182	-0.0073	-0.0462	0.0165	0.9585
40.197	-0.36833	777.3438	69.8199	-241.6784	-73.894	841.1611	-0.31231	-0.3874	0.10206	-0.15449	0.061913	-0.0058418	-0.0592	0.0182	-0.0073	-0.0462	0.0165	0.9585
40.21	1.6951	763.4066	68.5459	-237.2366	-71.3296	823.0264	0.057302	0.026812	0.058292	0.010136	-0.03189	0.42076	-0.0592	0.0182	-0.0073	-0.0462	0.0165	0.9585
40.223	3.7577	750.2617	67.2489	-233.014	-68.7333	805.8111	0.25964	0.52788	0.017683	0.2065	-0.071358	0.95041	-0.0592	0.0182	-0.0073	-0.0462	0.0165	0.9585
